<?xml version="1.0" encoding="utf-8"?>
<!-- Generator: Adobe Illustrator 27.8.1, SVG Export Plug-In . SVG Version: 6.00 Build 0)  -->
<svg version="1.1" id="Layer_1" xmlns="http://www.w3.org/2000/svg" xmlns:xlink="http://www.w3.org/1999/xlink" x="0px" y="0px"
	 viewBox="0 0 104 40" style="enable-background:new 0 0 104 40;" xml:space="preserve">
<style type="text/css">
	.st0{fill:#222222;}
	.st1{fill-rule:evenodd;clip-rule:evenodd;fill:#007BE5;}
</style>
<path class="st0" d="M20.2,19.6c-0.6-0.9-1.4-1.6-2.5-2.1c-1.1-0.6-2.3-0.9-3.6-0.9c-1.4,0-2.6,0.3-3.7,0.8c-1,0.5-1.9,1.2-2.7,2.1
	c-0.7,0.9-1.3,1.9-1.7,3c-0.4,1.1-0.6,2.4-0.6,3.6c0,1.3,0.2,2.5,0.6,3.6c0.4,1.1,1,2.2,1.7,3.1c0.7,0.9,1.7,1.5,2.7,2.1
	c1.1,0.5,2.3,0.8,3.7,0.8c1.3,0,2.5-0.3,3.6-0.8c1.1-0.5,2-1.2,2.7-2.1l3.5,3.2c-1.1,1.3-2.5,2.3-4.2,3.1c-1.7,0.7-3.6,1.1-5.7,1.1
	c-2,0-3.9-0.3-5.7-1c-1.7-0.7-3.2-1.6-4.5-2.8c-1.3-1.2-2.3-2.7-3-4.4C0.4,30.1,0,28.2,0,26.1c0-2.1,0.4-4,1.1-5.7
	C1.8,18.7,2.7,17.2,4,16c1.3-1.2,2.7-2.2,4.5-2.8c1.7-0.7,3.6-1,5.6-1c1.9,0,3.7,0.4,5.5,1.1c1.9,0.7,3.3,1.8,4.4,3.2L20.2,19.6z"/>
<path class="st0" d="M32.8,39.3h-5.2V12.9h5.2V39.3z M33.7,3.4c0,1-0.4,1.8-1.1,2.4c-0.7,0.6-1.5,0.9-2.4,0.9s-1.8-0.3-2.4-0.9
	c-0.7-0.7-1-1.5-1-2.4c0-1,0.3-1.8,1-2.4c0.7-0.7,1.5-1,2.4-1s1.8,0.3,2.4,1C33.4,1.6,33.7,2.4,33.7,3.4z"/>
<path class="st0" d="M53.2,17.2h-7v13.7c0,1.6,0.3,2.7,0.9,3.4c0.6,0.7,1.5,1,2.8,1c0.5,0,1-0.1,1.6-0.2c0.6-0.1,1.1-0.3,1.5-0.5
	l0.2,4.3c-0.6,0.2-1.3,0.4-2.1,0.5c-0.7,0.1-1.5,0.2-2.3,0.2c-2.5,0-4.4-0.7-5.7-2.1c-1.3-1.4-1.9-3.4-1.9-6.2V17.2h-5.1v-4.3H41
	V5.3h5.2v7.6h7V17.2z"/>
<path class="st0" d="M75.4,23.8c0-1-0.2-2-0.6-2.9c-0.3-0.9-0.8-1.7-1.4-2.4c-0.6-0.7-1.4-1.2-2.3-1.6c-0.9-0.4-1.9-0.6-3.2-0.6
	c-1.1,0-2.2,0.2-3.2,0.6c-1,0.4-1.8,0.9-2.6,1.6c-0.7,0.7-1.3,1.5-1.8,2.4c-0.4,0.9-0.7,1.9-0.8,2.9H75.4z M80.7,25.9
	c0,0.3,0,0.6,0,0.9c0,0.3,0,0.6-0.1,0.9H59.7c0,1.1,0.3,2.2,0.7,3.2c0.5,1,1.1,1.8,1.9,2.6c0.8,0.7,1.7,1.3,2.7,1.7
	c1,0.4,2.1,0.6,3.3,0.6c1.8,0,3.3-0.4,4.6-1.2c1.3-0.8,2.3-1.7,3.1-2.8l3.7,2.9c-1.4,1.9-3.1,3.2-5,4.1c-1.9,0.9-4,1.3-6.3,1.3
	c-2,0-3.9-0.3-5.6-1c-1.7-0.7-3.2-1.6-4.4-2.8c-1.2-1.2-2.2-2.7-2.9-4.4c-0.7-1.7-1.1-3.6-1.1-5.7c0-2,0.3-3.9,1-5.6
	c0.7-1.7,1.7-3.2,2.9-4.5c1.2-1.2,2.7-2.2,4.3-2.8c1.7-0.7,3.5-1.1,5.4-1.1c1.9,0,3.7,0.3,5.2,0.9c1.6,0.6,2.9,1.5,4,2.7
	c1.1,1.2,2,2.6,2.6,4.3C80.4,21.9,80.7,23.8,80.7,25.9z"/>
<path class="st1" d="M104,14.2V5.8c0-1.3-0.8-2.4-1.9-2.9l-6.9-2.7c-0.7-0.3-1.5-0.3-2.3,0L85.9,3C84.8,3.4,84,4.6,84,5.8v8.3
	c0,1.3,0.8,2.4,1.9,2.9l6.9,2.7c0.7,0.3,1.5,0.3,2.3,0l6.9-2.7C103.2,16.6,104,15.4,104,14.2z M101.7,13.4l-6.5-2.6V2.7l6.1,2.4
	c0.3,0.1,0.5,0.4,0.5,0.7V13.4z M100.1,15.3l-6.1-2.4c0,0,0,0-0.1,0c0,0,0,0-0.1,0l-6.1,2.4l5.8,2.3c0.2,0.1,0.4,0.1,0.6,0
	L100.1,15.3z M92.8,2.7v8.1l-6.5,2.6V5.8c0-0.3,0.2-0.6,0.5-0.7L92.8,2.7z"/>
</svg>
