<svg width="124" height="60" viewBox="0 0 124 60" fill="none" xmlns="http://www.w3.org/2000/svg">
<rect width="124" height="60" rx="4" fill="white"/>
<path d="M30.1947 29.5828C29.6384 28.7297 28.8039 28.025 27.6912 27.4687C26.5786 26.8753 25.3917 26.5786 24.1307 26.5786C22.7585 26.5786 21.5345 26.8382 20.459 27.3574C19.4205 27.8767 18.5304 28.5814 17.7886 29.4715C17.0468 30.3245 16.472 31.3259 16.064 32.4757C15.6931 33.6254 15.5076 34.8308 15.5076 36.0918C15.5076 37.3528 15.6931 38.5582 16.064 39.7079C16.472 40.8577 17.0468 41.8776 17.7886 42.7677C18.5304 43.6208 19.439 44.3069 20.5146 44.8261C21.5902 45.3454 22.8141 45.605 24.1864 45.605C25.5216 45.605 26.7269 45.3454 27.8025 44.8261C28.9152 44.3069 29.8238 43.6022 30.5285 42.7121L34.0334 45.8832C32.9207 47.1813 31.5299 48.2012 29.8609 48.943C28.1919 49.6477 26.3004 50 24.1864 50C22.1465 50 20.255 49.6662 18.5118 48.9986C16.8057 48.331 15.3222 47.4038 14.0612 46.217C12.8002 44.993 11.7988 43.528 11.057 41.822C10.3523 40.1159 10 38.2058 10 36.0918C10 34.0148 10.3523 32.1233 11.057 30.4172C11.7617 28.7112 12.7446 27.2462 14.0056 26.0223C15.2666 24.7983 16.7501 23.8526 18.4562 23.185C20.1994 22.5174 22.0723 22.1836 24.0751 22.1836C25.9295 22.1836 27.7654 22.5545 29.5828 23.2962C31.4372 24.038 32.9022 25.1136 33.9777 26.5229L30.1947 29.5828Z" fill="#222222"/>
<path d="M42.8312 49.2768H37.6017V22.9068H42.8312V49.2768ZM43.7213 13.3936C43.7213 14.3579 43.369 15.1553 42.6643 15.7858C41.9967 16.4163 41.1807 16.7316 40.2164 16.7316C39.2521 16.7316 38.4362 16.4163 37.7686 15.7858C37.101 15.1182 36.7672 14.3208 36.7672 13.3936C36.7672 12.4293 37.101 11.6319 37.7686 11.0014C38.4362 10.3338 39.2521 10 40.2164 10C41.1807 10 41.9967 10.3338 42.6643 11.0014C43.369 11.6319 43.7213 12.4293 43.7213 13.3936Z" fill="#222222"/>
<path d="M63.1811 27.1905H56.1713V40.9318C56.1713 42.5267 56.468 43.6764 57.0615 44.3811C57.6549 45.0487 58.6006 45.3825 59.8987 45.3825C60.3809 45.3825 60.9001 45.3268 61.4564 45.2156C62.0128 45.1043 62.5135 44.9374 62.9585 44.7149L63.1254 48.9986C62.4949 49.2211 61.7902 49.388 61.0114 49.4993C60.2696 49.6477 59.4907 49.7218 58.6748 49.7218C56.1899 49.7218 54.2798 49.0357 52.9446 47.6634C51.6465 46.2911 50.9975 44.2327 50.9975 41.4882V27.1905H45.9349V22.9068H50.9975V15.3408H56.1713V22.9068H63.1811V27.1905Z" fill="#222222"/>
<path d="M85.3842 33.7552C85.3471 32.7167 85.1617 31.7524 84.8279 30.8623C84.5312 29.9351 84.0676 29.1377 83.4371 28.4701C82.8436 27.8025 82.0833 27.2833 81.1561 26.9124C80.266 26.5044 79.209 26.3004 77.985 26.3004C76.8724 26.3004 75.8154 26.5044 74.814 26.9124C73.8497 27.2833 72.9966 27.8025 72.2549 28.4701C71.5502 29.1377 70.9568 29.9351 70.4746 30.8623C70.0296 31.7524 69.7699 32.7167 69.6958 33.7552H85.3842ZM90.6693 35.8693C90.6693 36.166 90.6693 36.4627 90.6693 36.7594C90.6693 37.0561 90.6508 37.3528 90.6137 37.6495H69.6958C69.7328 38.7622 69.9739 39.8192 70.419 40.8206C70.9011 41.7849 71.5316 42.6379 72.3105 43.3797C73.0894 44.0844 73.9795 44.6407 74.9809 45.0487C76.0193 45.4567 77.1135 45.6606 78.2632 45.6606C80.0435 45.6606 81.5826 45.2712 82.8807 44.4924C84.1788 43.7135 85.1988 42.7677 85.9405 41.6551L89.6123 44.6036C88.2029 46.458 86.534 47.8303 84.6054 48.7204C82.7138 49.5735 80.5998 50 78.2632 50C76.2604 50 74.406 49.6662 72.6999 48.9986C70.9939 48.331 69.5289 47.4038 68.3049 46.217C67.081 44.993 66.1167 43.528 65.412 41.822C64.7073 40.1159 64.355 38.2244 64.355 36.1474C64.355 34.1076 64.6888 32.2346 65.3564 30.5285C66.0611 28.7854 67.0254 27.3018 68.2493 26.0779C69.4732 24.854 70.9197 23.9082 72.5887 23.2406C74.2576 22.5359 76.0564 22.1836 77.985 22.1836C79.9136 22.1836 81.6568 22.4988 83.2145 23.1293C84.8093 23.7599 86.1445 24.6685 87.2201 25.8554C88.3328 27.0422 89.1858 28.4886 89.7792 30.1947C90.3726 31.8637 90.6693 33.7552 90.6693 35.8693Z" fill="#222222"/>
<path fill-rule="evenodd" clip-rule="evenodd" d="M114 24.1578L114 15.8422C114 14.5714 113.228 13.4298 112.052 12.9634L105.129 10.216C104.404 9.92801 103.596 9.92801 102.871 10.216L95.9476 12.9634C94.7724 13.4298 94 14.5714 94 15.8422V24.1578C94 25.4286 94.7724 26.5702 95.9476 27.0366L102.871 29.784C103.596 30.072 104.404 30.072 105.129 29.784L112.052 27.0366C113.228 26.5702 114 25.4286 114 24.1578ZM111.692 23.4367L105.154 20.8419L105.154 12.7209L111.205 15.1225C111.499 15.2391 111.692 15.5245 111.692 15.8422L111.692 23.4367ZM110.12 25.3081L104.063 22.9044C104.042 22.8959 104.021 22.8871 104 22.8779C103.979 22.8871 103.958 22.8959 103.937 22.9044L97.8796 25.3081L103.718 27.6249C103.899 27.6969 104.101 27.6969 104.282 27.6249L110.12 25.3081ZM102.846 12.7209V20.8419L96.3077 23.4367V15.8422C96.3077 15.5245 96.5008 15.2391 96.7946 15.1225L102.846 12.7209Z" fill="#007BE5"/>
</svg>
